<svg viewBox="0 0 900 900" width="900" height="900" xmlns="http://www.w3.org/2000/svg" xmlns:xlink="http://www.w3.org/1999/xlink" version="1.1"><rect x="0" y="0" width="900" height="900" fill="#010c14"></rect><g fill="#4FACF7"><circle r="17" cx="77" cy="78"></circle><circle r="5" cx="518" cy="562"></circle><circle r="5" cx="179" cy="754"></circle><circle r="15" cx="666" cy="846"></circle><circle r="5" cx="40" cy="185"></circle><circle r="11" cx="637" cy="513"></circle><circle r="15" cx="20" cy="565"></circle><circle r="5" cx="743" cy="22"></circle><circle r="6" cx="660" cy="203"></circle><circle r="9" cx="755" cy="895"></circle><circle r="5" cx="462" cy="848"></circle><circle r="5" cx="835" cy="388"></circle><circle r="7" cx="434" cy="373"></circle><circle r="11" cx="858" cy="679"></circle><circle r="7" cx="211" cy="388"></circle><circle r="6" cx="119" cy="370"></circle><circle r="9" cx="739" cy="560"></circle><circle r="8" cx="388" cy="264"></circle></g></svg>